<svg xmlns="http://www.w3.org/2000/svg" viewBox="0 0 380 380" width="512" height="512">
<rect width="380" height="380" fill="#0f172a"/>
<path d="M 90 290 A 130 130 0 1 1 290 290" fill="none" stroke="#1e3a5f" stroke-width="32" stroke-linecap="round"/>
<path d="M 90 290 A 130 130 0 1 1 272 168" fill="none" stroke="#0ea5e9" stroke-width="32" stroke-linecap="round"/>
<g stroke="#334155" stroke-width="5" stroke-linecap="round">
  <line x1="190" y1="165" x2="190" y2="148" transform="rotate(-90 190 290)"/>
  <line x1="190" y1="165" x2="190" y2="148" transform="rotate(-60 190 290)"/>
  <line x1="190" y1="165" x2="190" y2="148" transform="rotate(-30 190 290)"/>
  <line x1="190" y1="165" x2="190" y2="148" transform="rotate(0 190 290)"/>
  <line x1="190" y1="165" x2="190" y2="148" transform="rotate(30 190 290)"/>
  <line x1="190" y1="165" x2="190" y2="148" transform="rotate(60 190 290)"/>
  <line x1="190" y1="165" x2="190" y2="148" transform="rotate(90 190 290)"/>
</g>
<line x1="190" y1="190" x2="272" y2="168" stroke="#f8fafc" stroke-width="10" stroke-linecap="round"/>
<line x1="190" y1="190" x2="148" y2="200" stroke="#334155" stroke-width="6" stroke-linecap="round"/>
<circle cx="190" cy="190" r="20" fill="#0ea5e9"/>
<circle cx="190" cy="190" r="10" fill="#0f172a"/>
<text x="190" y="338" font-family="Arial Black, Impact, sans-serif" font-size="52" font-weight="700" fill="#0ea5e9" text-anchor="middle" letter-spacing="8">MM</text>
</svg>
